<mxfile host="app.diagrams.net" modified="2022-10-27T04:32:36.934Z" agent="5.0 (Macintosh; Intel Mac OS X 10_15_7) AppleWebKit/537.36 (KHTML, like Gecko) Chrome/106.0.0.0 Safari/537.36 OPR/92.0.0.0" etag="tuKCdDkgvP_4jlwKrCp4" version="20.5.1" type="github" pages="2">
  <diagram id="GTj9qWPxI3njstYWeEmq" name="Login Page">
    <mxGraphModel dx="746" dy="495" grid="1" gridSize="10" guides="1" tooltips="1" connect="1" arrows="1" fold="1" page="1" pageScale="1" pageWidth="827" pageHeight="1169" math="0" shadow="0">
      <root>
        <mxCell id="0" />
        <mxCell id="1" parent="0" />
      </root>
    </mxGraphModel>
  </diagram>
  <diagram id="q1uIloGPO7rh5jIqrkuE" name="Flow Chart">
    <mxGraphModel dx="829" dy="1719" grid="1" gridSize="10" guides="1" tooltips="1" connect="1" arrows="1" fold="1" page="1" pageScale="1" pageWidth="827" pageHeight="1169" math="0" shadow="0">
      <root>
        <mxCell id="0" />
        <mxCell id="1" parent="0" />
        <mxCell id="YeR9otqpmhTskdSaUkdA-1" value="Login" style="strokeWidth=2;html=1;shape=mxgraph.flowchart.terminator;whiteSpace=wrap;" vertex="1" parent="1">
          <mxGeometry x="364" y="-1000" width="100" height="60" as="geometry" />
        </mxCell>
        <mxCell id="YeR9otqpmhTskdSaUkdA-2" value="Homepage:&lt;br&gt;What is submission tracker.&lt;br&gt;Procedure" style="rounded=1;whiteSpace=wrap;html=1;absoluteArcSize=1;arcSize=14;strokeWidth=2;" vertex="1" parent="1">
          <mxGeometry x="269" y="-1160" width="290" height="100" as="geometry" />
        </mxCell>
        <mxCell id="YeR9otqpmhTskdSaUkdA-3" value="Record New Paper" style="verticalLabelPosition=middle;verticalAlign=middle;html=1;shape=hexagon;perimeter=hexagonPerimeter2;arcSize=6;size=0.27;labelPosition=center;align=center;" vertex="1" parent="1">
          <mxGeometry x="90" y="-780" width="200" height="60" as="geometry" />
        </mxCell>
        <mxCell id="YeR9otqpmhTskdSaUkdA-4" value="Check submission" style="verticalLabelPosition=middle;verticalAlign=middle;html=1;shape=hexagon;perimeter=hexagonPerimeter2;arcSize=6;size=0.27;labelPosition=center;align=center;" vertex="1" parent="1">
          <mxGeometry x="530" y="-780" width="200" height="60" as="geometry" />
        </mxCell>
        <mxCell id="YeR9otqpmhTskdSaUkdA-5" value="" style="strokeWidth=2;html=1;shape=mxgraph.flowchart.annotation_2;align=left;labelPosition=right;pointerEvents=1;rotation=90;" vertex="1" parent="1">
          <mxGeometry x="389" y="-1024" width="49" height="440" as="geometry" />
        </mxCell>
        <mxCell id="YeR9otqpmhTskdSaUkdA-6" value="Dashboar" style="rounded=1;whiteSpace=wrap;html=1;absoluteArcSize=1;arcSize=14;strokeWidth=2;" vertex="1" parent="1">
          <mxGeometry x="368" y="-878" width="91.5" height="50" as="geometry" />
        </mxCell>
        <mxCell id="YeR9otqpmhTskdSaUkdA-8" value="" style="endArrow=classic;html=1;rounded=0;exitX=0.5;exitY=1;exitDx=0;exitDy=0;exitPerimeter=0;" edge="1" parent="1" source="YeR9otqpmhTskdSaUkdA-1">
          <mxGeometry width="50" height="50" relative="1" as="geometry">
            <mxPoint x="430" y="-560" as="sourcePoint" />
            <mxPoint x="414" y="-880" as="targetPoint" />
          </mxGeometry>
        </mxCell>
      </root>
    </mxGraphModel>
  </diagram>
</mxfile>
